<svg width="30" height="30" viewBox="0 0 30 30" fill="none" xmlns="http://www.w3.org/2000/svg">
<path fill-rule="evenodd" clip-rule="evenodd" d="M18.6885 1.22025C19.2884 1.22025 19.7753 1.70714 19.7753 2.30705C19.7753 2.90696 19.2884 3.39384 18.6885 3.39384H8.15675C4.52251 3.39384 2.17359 5.89202 2.17359 9.761V21.4723C2.17359 25.392 4.466 27.8264 8.15675 27.8264H20.6244C24.2587 27.8264 26.6076 25.3326 26.6076 21.4723V11.2724C26.6076 10.6725 27.0945 10.1856 27.6944 10.1856C28.2943 10.1856 28.7812 10.6725 28.7812 11.2724V21.4723C28.7812 26.573 25.5034 30 20.6244 30H8.15675C3.27777 30 0 26.573 0 21.4723V9.761C0 4.65307 3.27777 1.22025 8.15675 1.22025H18.6885ZM21.7538 11.117C22.2291 11.4851 22.3161 12.1676 21.948 12.6414L17.7023 18.1189C17.5255 18.3478 17.2647 18.4971 16.9777 18.5319C16.6879 18.571 16.401 18.4869 16.1721 18.3087L12.0886 15.1005L8.42106 19.8664C8.2066 20.1447 7.88491 20.291 7.55887 20.291C7.32702 20.291 7.09372 20.2171 6.89665 20.0664C6.42136 19.6998 6.33152 19.0173 6.69813 18.542L11.0352 12.9052C11.2119 12.6748 11.4742 12.5255 11.7611 12.4893C12.0538 12.4516 12.3408 12.5328 12.5683 12.7139L16.6546 15.9236L20.2294 11.3112C20.5975 10.8345 21.2786 10.7461 21.7538 11.117ZM26.0358 0C28.1717 0 29.9077 1.73597 29.9077 3.87188C29.9077 6.0078 28.1717 7.74522 26.0358 7.74522C23.9013 7.74522 22.1639 6.0078 22.1639 3.87188C22.1639 1.73597 23.9013 0 26.0358 0ZM26.0358 2.17359C25.0997 2.17359 24.3375 2.93434 24.3375 3.87188C24.3375 4.80798 25.0997 5.57163 26.0358 5.57163C26.9719 5.57163 27.7341 4.80798 27.7341 3.87188C27.7341 2.93434 26.9719 2.17359 26.0358 2.17359Z" fill="black"/>
</svg>
