<svg width="220" height="350" viewBox="0 0 200 324" fill="none" xmlns="http://www.w3.org/2000/svg">
<g filter="url(#filter0_d_732_145678)">
<rect x="6" y="6" width="180" height="304" rx="10" fill="white" shape-rendering="crispEdges"/>
<path d="M65.2274 137.929V128.5H68.3703V137.929H77.7988V141.071H68.3703V150.5H65.2274V141.071H55.7988V137.929H65.2274Z" fill="#6C757D"/>
<path d="M135.074 149.563L138.506 151.621C138.717 151.748 138.893 151.927 139.014 152.142C139.136 152.357 139.2 152.599 139.2 152.846C139.2 153.093 139.136 153.335 139.014 153.55C138.893 153.764 138.717 153.944 138.506 154.071L113.47 169.092C113.026 169.359 112.517 169.5 111.999 169.5C111.481 169.5 110.973 169.359 110.529 169.092L85.493 154.071C85.2813 153.944 85.1061 153.764 84.9844 153.55C84.8628 153.335 84.7988 153.093 84.7988 152.846C84.7988 152.599 84.8628 152.357 84.9844 152.142C85.1061 151.927 85.2813 151.748 85.493 151.621L88.9244 149.563L111.999 163.409L135.074 149.563V149.563ZM135.074 136.146L138.506 138.204C138.717 138.331 138.893 138.51 139.014 138.725C139.136 138.939 139.2 139.182 139.2 139.429C139.2 139.675 139.136 139.918 139.014 140.133C138.893 140.347 138.717 140.527 138.506 140.653L111.999 156.557L85.493 140.653C85.2813 140.527 85.1061 140.347 84.9844 140.133C84.8628 139.918 84.7988 139.675 84.7988 139.429C84.7988 139.182 84.8628 138.939 84.9844 138.725C85.1061 138.51 85.2813 138.331 85.493 138.204L88.9244 136.146L111.999 149.991L135.074 136.146ZM113.467 109.908L138.506 124.929C138.717 125.056 138.893 125.236 139.014 125.45C139.136 125.665 139.2 125.907 139.2 126.154C139.2 126.401 139.136 126.643 139.014 126.858C138.893 127.073 138.717 127.252 138.506 127.379L111.999 143.283L85.493 127.379C85.2813 127.252 85.1061 127.073 84.9844 126.858C84.8628 126.643 84.7988 126.401 84.7988 126.154C84.7988 125.907 84.8628 125.665 84.9844 125.45C85.1061 125.236 85.2813 125.056 85.493 124.929L110.529 109.908C110.973 109.641 111.481 109.5 111.999 109.5C112.517 109.5 113.026 109.641 113.47 109.908H113.467ZM111.999 115.683L94.5483 126.154L111.999 136.625L129.45 126.154L111.999 115.683Z" fill="#6C757D"/>
<path d="M45.352 204.64C44.6053 204.64 43.91 204.519 43.266 204.276C42.6313 204.024 42.076 203.674 41.6 203.226C41.1333 202.769 40.7693 202.232 40.508 201.616C40.2467 201 40.116 200.328 40.116 199.6C40.116 198.872 40.2467 198.2 40.508 197.584C40.7693 196.968 41.138 196.436 41.614 195.988C42.09 195.531 42.6453 195.181 43.28 194.938C43.9147 194.686 44.61 194.56 45.366 194.56C46.1687 194.56 46.9013 194.7 47.564 194.98C48.2267 195.251 48.7867 195.657 49.244 196.198L48.068 197.304C47.7133 196.921 47.3167 196.637 46.878 196.45C46.4393 196.254 45.9633 196.156 45.45 196.156C44.9367 196.156 44.4653 196.24 44.036 196.408C43.616 196.576 43.2473 196.814 42.93 197.122C42.622 197.43 42.3793 197.794 42.202 198.214C42.034 198.634 41.95 199.096 41.95 199.6C41.95 200.104 42.034 200.566 42.202 200.986C42.3793 201.406 42.622 201.77 42.93 202.078C43.2473 202.386 43.616 202.624 44.036 202.792C44.4653 202.96 44.9367 203.044 45.45 203.044C45.9633 203.044 46.4393 202.951 46.878 202.764C47.3167 202.568 47.7133 202.274 48.068 201.882L49.244 203.002C48.7867 203.534 48.2267 203.94 47.564 204.22C46.9013 204.5 46.164 204.64 45.352 204.64ZM50.8199 204.5V197.024H52.4859V199.082L52.2899 198.48C52.5139 197.976 52.8639 197.593 53.3399 197.332C53.8252 197.071 54.4272 196.94 55.1459 196.94V198.606C55.0712 198.587 55.0012 198.578 54.9359 198.578C54.8705 198.569 54.8052 198.564 54.7399 198.564C54.0772 198.564 53.5499 198.76 53.1579 199.152C52.7659 199.535 52.5699 200.109 52.5699 200.874V204.5H50.8199ZM60.0761 204.598C59.2454 204.598 58.5174 204.435 57.8921 204.108C57.2761 203.772 56.7954 203.315 56.4501 202.736C56.1141 202.157 55.9461 201.499 55.9461 200.762C55.9461 200.015 56.1094 199.357 56.4361 198.788C56.7721 198.209 57.2294 197.757 57.8081 197.43C58.3961 197.103 59.0634 196.94 59.8101 196.94C60.5381 196.94 61.1867 197.099 61.7561 197.416C62.3254 197.733 62.7734 198.181 63.1001 198.76C63.4267 199.339 63.5901 200.02 63.5901 200.804C63.5901 200.879 63.5854 200.963 63.5761 201.056C63.5761 201.149 63.5714 201.238 63.5621 201.322H57.3321V200.16H62.6381L61.9521 200.524C61.9614 200.095 61.8727 199.717 61.6861 199.39C61.4994 199.063 61.2427 198.807 60.9161 198.62C60.5987 198.433 60.2301 198.34 59.8101 198.34C59.3807 198.34 59.0027 198.433 58.6761 198.62C58.3587 198.807 58.1067 199.068 57.9201 199.404C57.7427 199.731 57.6541 200.118 57.6541 200.566V200.846C57.6541 201.294 57.7567 201.691 57.9621 202.036C58.1674 202.381 58.4567 202.647 58.8301 202.834C59.2034 203.021 59.6327 203.114 60.1181 203.114C60.5381 203.114 60.9161 203.049 61.2521 202.918C61.5881 202.787 61.8867 202.582 62.1481 202.302L63.0861 203.38C62.7501 203.772 62.3254 204.075 61.8121 204.29C61.3081 204.495 60.7294 204.598 60.0761 204.598ZM69.672 204.5V202.988L69.574 202.666V200.02C69.574 199.507 69.42 199.11 69.112 198.83C68.804 198.541 68.3373 198.396 67.712 198.396C67.292 198.396 66.8766 198.461 66.466 198.592C66.0646 198.723 65.724 198.905 65.444 199.138L64.758 197.864C65.1593 197.556 65.6353 197.327 66.186 197.178C66.746 197.019 67.3246 196.94 67.922 196.94C69.0046 196.94 69.84 197.201 70.428 197.724C71.0253 198.237 71.324 199.035 71.324 200.118V204.5H69.672ZM67.32 204.598C66.76 204.598 66.27 204.505 65.85 204.318C65.43 204.122 65.1033 203.856 64.87 203.52C64.646 203.175 64.534 202.787 64.534 202.358C64.534 201.938 64.632 201.56 64.828 201.224C65.0333 200.888 65.3646 200.622 65.822 200.426C66.2793 200.23 66.886 200.132 67.642 200.132H69.812V201.294H67.768C67.1706 201.294 66.7693 201.392 66.564 201.588C66.3586 201.775 66.256 202.008 66.256 202.288C66.256 202.605 66.382 202.857 66.634 203.044C66.886 203.231 67.236 203.324 67.684 203.324C68.1133 203.324 68.496 203.226 68.832 203.03C69.1773 202.834 69.4246 202.545 69.574 202.162L69.868 203.212C69.7 203.651 69.3966 203.991 68.958 204.234C68.5286 204.477 67.9826 204.598 67.32 204.598ZM76.3839 204.598C75.5625 204.598 74.9279 204.388 74.4799 203.968C74.0319 203.539 73.8079 202.909 73.8079 202.078V195.372H75.5579V202.036C75.5579 202.391 75.6465 202.666 75.8239 202.862C76.0105 203.058 76.2672 203.156 76.5939 203.156C76.9859 203.156 77.3125 203.053 77.5739 202.848L78.0639 204.094C77.8585 204.262 77.6065 204.388 77.3079 204.472C77.0092 204.556 76.7012 204.598 76.3839 204.598ZM72.5759 198.48V197.08H77.5599V198.48H72.5759ZM82.7714 204.598C81.9407 204.598 81.2127 204.435 80.5874 204.108C79.9714 203.772 79.4907 203.315 79.1454 202.736C78.8094 202.157 78.6414 201.499 78.6414 200.762C78.6414 200.015 78.8047 199.357 79.1314 198.788C79.4674 198.209 79.9247 197.757 80.5034 197.43C81.0914 197.103 81.7587 196.94 82.5054 196.94C83.2334 196.94 83.882 197.099 84.4514 197.416C85.0207 197.733 85.4687 198.181 85.7954 198.76C86.122 199.339 86.2854 200.02 86.2854 200.804C86.2854 200.879 86.2807 200.963 86.2714 201.056C86.2714 201.149 86.2667 201.238 86.2574 201.322H80.0274V200.16H85.3334L84.6474 200.524C84.6567 200.095 84.568 199.717 84.3814 199.39C84.1947 199.063 83.938 198.807 83.6114 198.62C83.294 198.433 82.9254 198.34 82.5054 198.34C82.076 198.34 81.698 198.433 81.3714 198.62C81.054 198.807 80.802 199.068 80.6154 199.404C80.438 199.731 80.3494 200.118 80.3494 200.566V200.846C80.3494 201.294 80.452 201.691 80.6574 202.036C80.8627 202.381 81.152 202.647 81.5254 202.834C81.8987 203.021 82.328 203.114 82.8134 203.114C83.2334 203.114 83.6114 203.049 83.9474 202.918C84.2834 202.787 84.582 202.582 84.8434 202.302L85.7814 203.38C85.4454 203.772 85.0207 204.075 84.5074 204.29C84.0034 204.495 83.4247 204.598 82.7714 204.598ZM92.0035 204.5V194.7H96.5955C97.7715 194.7 98.6675 194.933 99.2835 195.4C99.8995 195.857 100.208 196.473 100.208 197.248C100.208 197.771 100.086 198.219 99.8435 198.592C99.6008 198.956 99.2742 199.241 98.8635 199.446C98.4622 199.642 98.0235 199.74 97.5475 199.74L97.7995 199.236C98.3502 199.236 98.8448 199.339 99.2835 199.544C99.7222 199.74 100.068 200.029 100.32 200.412C100.581 200.795 100.712 201.271 100.712 201.84C100.712 202.68 100.39 203.333 99.7455 203.8C99.1015 204.267 98.1448 204.5 96.8755 204.5H92.0035ZM93.8235 203.072H96.7635C97.4448 203.072 97.9675 202.96 98.3315 202.736C98.6955 202.512 98.8775 202.153 98.8775 201.658C98.8775 201.173 98.6955 200.818 98.3315 200.594C97.9675 200.361 97.4448 200.244 96.7635 200.244H93.6835V198.83H96.3995C97.0342 198.83 97.5195 198.718 97.8555 198.494C98.2008 198.27 98.3735 197.934 98.3735 197.486C98.3735 197.029 98.2008 196.688 97.8555 196.464C97.5195 196.24 97.0342 196.128 96.3995 196.128H93.8235V203.072ZM105.65 204.598C105.015 204.598 104.455 204.481 103.97 204.248C103.485 204.005 103.107 203.641 102.836 203.156C102.565 202.661 102.43 202.041 102.43 201.294V197.024H104.18V201.056C104.18 201.728 104.329 202.232 104.628 202.568C104.936 202.895 105.37 203.058 105.93 203.058C106.341 203.058 106.695 202.974 106.994 202.806C107.302 202.638 107.54 202.386 107.708 202.05C107.885 201.714 107.974 201.299 107.974 200.804V197.024H109.724V204.5H108.058V202.484L108.352 203.1C108.1 203.585 107.731 203.959 107.246 204.22C106.761 204.472 106.229 204.598 105.65 204.598ZM116.257 196.94C116.855 196.94 117.387 197.057 117.853 197.29C118.329 197.523 118.703 197.883 118.973 198.368C119.244 198.844 119.379 199.46 119.379 200.216V204.5H117.629V200.44C117.629 199.777 117.471 199.283 117.153 198.956C116.845 198.629 116.411 198.466 115.851 198.466C115.441 198.466 115.077 198.55 114.759 198.718C114.442 198.886 114.195 199.138 114.017 199.474C113.849 199.801 113.765 200.216 113.765 200.72V204.5H112.015V197.024H113.681V199.04L113.387 198.424C113.649 197.948 114.027 197.584 114.521 197.332C115.025 197.071 115.604 196.94 116.257 196.94ZM124.777 204.598C124.058 204.598 123.41 204.439 122.831 204.122C122.262 203.795 121.814 203.347 121.487 202.778C121.16 202.209 120.997 201.537 120.997 200.762C120.997 199.987 121.16 199.315 121.487 198.746C121.814 198.177 122.262 197.733 122.831 197.416C123.41 197.099 124.058 196.94 124.777 196.94C125.402 196.94 125.962 197.08 126.457 197.36C126.952 197.631 127.344 198.046 127.633 198.606C127.922 199.166 128.067 199.885 128.067 200.762C128.067 201.63 127.927 202.349 127.647 202.918C127.367 203.478 126.98 203.898 126.485 204.178C125.99 204.458 125.421 204.598 124.777 204.598ZM124.987 203.1C125.407 203.1 125.78 203.007 126.107 202.82C126.443 202.633 126.709 202.363 126.905 202.008C127.11 201.653 127.213 201.238 127.213 200.762C127.213 200.277 127.11 199.861 126.905 199.516C126.709 199.161 126.443 198.891 126.107 198.704C125.78 198.517 125.407 198.424 124.987 198.424C124.567 198.424 124.189 198.517 123.853 198.704C123.526 198.891 123.26 199.161 123.055 199.516C122.859 199.861 122.761 200.277 122.761 200.762C122.761 201.238 122.859 201.653 123.055 202.008C123.26 202.363 123.526 202.633 123.853 202.82C124.189 203.007 124.567 203.1 124.987 203.1ZM127.255 204.5V202.736L127.325 200.748L127.185 198.76V194.112H128.921V204.5H127.255ZM134.388 204.598C133.67 204.598 133.021 204.439 132.442 204.122C131.873 203.795 131.425 203.347 131.098 202.778C130.772 202.209 130.608 201.537 130.608 200.762C130.608 199.987 130.772 199.315 131.098 198.746C131.425 198.177 131.873 197.733 132.442 197.416C133.021 197.099 133.67 196.94 134.388 196.94C135.014 196.94 135.574 197.08 136.068 197.36C136.563 197.631 136.955 198.046 137.244 198.606C137.534 199.166 137.678 199.885 137.678 200.762C137.678 201.63 137.538 202.349 137.258 202.918C136.978 203.478 136.591 203.898 136.096 204.178C135.602 204.458 135.032 204.598 134.388 204.598ZM134.598 203.1C135.018 203.1 135.392 203.007 135.718 202.82C136.054 202.633 136.32 202.363 136.516 202.008C136.722 201.653 136.824 201.238 136.824 200.762C136.824 200.277 136.722 199.861 136.516 199.516C136.32 199.161 136.054 198.891 135.718 198.704C135.392 198.517 135.018 198.424 134.598 198.424C134.178 198.424 133.8 198.517 133.464 198.704C133.138 198.891 132.872 199.161 132.666 199.516C132.47 199.861 132.372 200.277 132.372 200.762C132.372 201.238 132.47 201.653 132.666 202.008C132.872 202.363 133.138 202.633 133.464 202.82C133.8 203.007 134.178 203.1 134.598 203.1ZM136.866 204.5V202.736L136.936 200.748L136.796 198.76V194.112H138.532V204.5H136.866ZM140.836 204.5V194.112H142.586V204.5H140.836ZM148.396 204.598C147.566 204.598 146.838 204.435 146.212 204.108C145.596 203.772 145.116 203.315 144.77 202.736C144.434 202.157 144.266 201.499 144.266 200.762C144.266 200.015 144.43 199.357 144.756 198.788C145.092 198.209 145.55 197.757 146.128 197.43C146.716 197.103 147.384 196.94 148.13 196.94C148.858 196.94 149.507 197.099 150.076 197.416C150.646 197.733 151.094 198.181 151.42 198.76C151.747 199.339 151.91 200.02 151.91 200.804C151.91 200.879 151.906 200.963 151.896 201.056C151.896 201.149 151.892 201.238 151.882 201.322H145.652V200.16H150.958L150.272 200.524C150.282 200.095 150.193 199.717 150.006 199.39C149.82 199.063 149.563 198.807 149.236 198.62C148.919 198.433 148.55 198.34 148.13 198.34C147.701 198.34 147.323 198.433 146.996 198.62C146.679 198.807 146.427 199.068 146.24 199.404C146.063 199.731 145.974 200.118 145.974 200.566V200.846C145.974 201.294 146.077 201.691 146.282 202.036C146.488 202.381 146.777 202.647 147.15 202.834C147.524 203.021 147.953 203.114 148.438 203.114C148.858 203.114 149.236 203.049 149.572 202.918C149.908 202.787 150.207 202.582 150.468 202.302L151.406 203.38C151.07 203.772 150.646 204.075 150.132 204.29C149.628 204.495 149.05 204.598 148.396 204.598Z" fill="#6C757D"/>
</g>
<defs>
<filter id="filter0_d_732_145678" x="0" y="0" width="200" height="324" filterUnits="userSpaceOnUse" color-interpolation-filters="sRGB">
<feFlood flood-opacity="0" result="BackgroundImageFix"/>
<feColorMatrix in="SourceAlpha" type="matrix" values="0 0 0 0 0 0 0 0 0 0 0 0 0 0 0 0 0 0 127 0" result="hardAlpha"/>
<feOffset dx="4" dy="4"/>
<feGaussianBlur stdDeviation="5"/>
<feComposite in2="hardAlpha" operator="out"/>
<feColorMatrix type="matrix" values="0 0 0 0 0 0 0 0 0 0 0 0 0 0 0 0 0 0 0.12 0"/>
<feBlend mode="normal" in2="BackgroundImageFix" result="effect1_dropShadow_732_145678"/>
<feBlend mode="normal" in="SourceGraphic" in2="effect1_dropShadow_732_145678" result="shape"/>
</filter>
</defs>
</svg>
