<svg width="31" height="35" viewBox="0 0 31 35" fill="none" xmlns="http://www.w3.org/2000/svg">
<path d="M18.7418 29.0669V32.9888L15.3211 35L12.0026 32.9888V29.0669L15.3211 31.0781L18.7418 29.0669ZM0.436523 15.488L3.75503 17.5008V24.2384L9.48861 27.6591V31.5809L0.436523 26.2496V15.488ZM30.2074 15.488V26.2496L21.0547 31.5809V27.6591L26.7867 24.2384V17.5008L30.2074 15.488ZM21.0547 10.1583L24.4738 12.1646V16.0913L18.7418 19.512V26.3502L15.4217 28.363L12.1032 26.3502V19.512L6.17011 16.0913V12.1646L9.58917 10.1534L15.3211 13.5773L21.0547 10.1583ZM6.17011 18.9168L9.48861 20.9231V24.845L6.17011 22.8338V18.9168ZM24.4738 18.9168V22.8386L21.1553 24.8499V20.9231L24.4738 18.9168ZM3.75503 6.75217L7.17571 8.75852L3.75503 10.7616V14.6835L0.436523 12.6723V8.75852L3.75503 6.75217ZM26.8872 6.75217L30.3079 8.75852V12.6723L26.8872 14.6835V10.7616L23.5687 8.75852L26.8872 6.75217ZM15.3211 6.75217L18.7418 8.75852L15.3211 10.7616L12.0026 8.75852L15.3211 6.75217ZM15.3211 0L24.4738 5.32972L21.1553 7.34256L15.4217 3.92187L9.58268 7.34256L6.27553 5.32972L15.3211 0Z" fill="#F3BA2F"/>
</svg>
