<svg width="22" height="12" viewBox="0 0 16 9" fill="none" xmlns="http://www.w3.org/2000/svg">
<path d="M0.101154 1.63526C0.100637 1.37047 0.192856 1.11386 0.361804 0.90997C0.456941 0.795217 0.573783 0.700361 0.705635 0.630833C0.837487 0.561305 0.981758 0.518471 1.13019 0.504786C1.27862 0.491101 1.42829 0.506833 1.57064 0.551081C1.71298 0.595329 1.84519 0.667222 1.95971 0.762645L8.03401 5.83967L14.1196 0.943969C14.2356 0.849833 14.3689 0.779534 14.5121 0.737114C14.6553 0.694694 14.8054 0.680989 14.9539 0.696785C15.1024 0.712582 15.2463 0.757569 15.3774 0.829162C15.5084 0.900755 15.624 0.997541 15.7175 1.11396C15.8207 1.23121 15.8985 1.36853 15.9461 1.51728C15.9937 1.66604 16.01 1.82302 15.9941 1.97838C15.9781 2.13375 15.9302 2.28413 15.8534 2.4201C15.7765 2.55608 15.6724 2.6747 15.5476 2.76853L8.74797 8.2422C8.54519 8.40888 8.29084 8.5 8.02834 8.5C7.76585 8.5 7.5115 8.40888 7.30872 8.2422L0.50913 2.57587C0.371985 2.46218 0.263573 2.31777 0.192688 2.15434C0.121803 1.99091 0.0904446 1.81308 0.101154 1.63526Z" fill="black"/>
</svg>
