<svg width="25" height="18" viewBox="0 0 25 18" fill="none" xmlns="http://www.w3.org/2000/svg">
<path d="M20.8067 1.49197C19.2767 0.801974 17.6367 0.291974 15.9217 0.0019736C15.9065 -0.000958481 15.8907 0.000931061 15.8765 0.00738094C15.8623 0.0138308 15.8505 0.0245219 15.8427 0.0379736C15.6327 0.406974 15.3987 0.887974 15.2347 1.26797C13.4158 0.99621 11.5666 0.99621 9.74774 1.26797C9.56507 0.846834 9.35909 0.436198 9.13074 0.0379736C9.123 0.0243563 9.11129 0.0134234 9.09717 0.00663373C9.08306 -0.000155898 9.06721 -0.00247938 9.05174 -2.64894e-05C7.33774 0.289973 5.69774 0.799974 4.16674 1.49097C4.15357 1.4965 4.1424 1.50592 4.13474 1.51797C1.02274 6.09297 0.169738 10.555 0.588738 14.961C0.589904 14.9718 0.593254 14.9822 0.598583 14.9917C0.603913 15.0011 0.61111 15.0094 0.619738 15.016C2.43613 16.3384 4.46208 17.3458 6.61274 17.996C6.62773 18.0006 6.64377 18.0006 6.65875 17.9959C6.67374 17.9913 6.68698 17.9823 6.69674 17.97C7.15953 17.351 7.56964 16.6944 7.92274 16.007C7.92764 15.9976 7.93046 15.9872 7.93102 15.9766C7.93158 15.9661 7.92985 15.9555 7.92597 15.9456C7.92208 15.9358 7.91612 15.9268 7.90849 15.9195C7.90086 15.9121 7.89174 15.9065 7.88174 15.903C7.23574 15.6597 6.60982 15.3661 6.00974 15.025C5.99896 15.0188 5.98987 15.0101 5.9833 14.9995C5.97672 14.989 5.97286 14.977 5.97207 14.9646C5.97128 14.9522 5.97357 14.9398 5.97875 14.9286C5.98393 14.9173 5.99183 14.9075 6.00174 14.9C6.12774 14.807 6.25374 14.71 6.37374 14.613C6.38454 14.6043 6.39755 14.5987 6.41132 14.5969C6.42509 14.5952 6.43909 14.5973 6.45174 14.603C10.3787 16.367 14.6317 16.367 18.5127 14.603C18.5254 14.5969 18.5396 14.5946 18.5535 14.5961C18.5675 14.5977 18.5807 14.6032 18.5917 14.612C18.7117 14.71 18.8367 14.807 18.9637 14.9C18.9737 14.9073 18.9818 14.917 18.9871 14.9282C18.9925 14.9394 18.9949 14.9517 18.9944 14.9641C18.9938 14.9765 18.9901 14.9885 18.9837 14.9991C18.9773 15.0098 18.9684 15.0186 18.9577 15.025C18.3597 15.369 17.7377 15.66 17.0847 15.902C17.0747 15.9056 17.0656 15.9114 17.0579 15.9188C17.0503 15.9263 17.0443 15.9353 17.0405 15.9452C17.0366 15.9551 17.0349 15.9658 17.0354 15.9764C17.036 15.9871 17.0388 15.9975 17.0437 16.007C17.4037 16.694 17.8157 17.348 18.2687 17.969C18.2782 17.9817 18.2913 17.9912 18.3063 17.9963C18.3213 18.0013 18.3376 18.0015 18.3527 17.997C20.5071 17.3486 22.5363 16.3407 24.3547 15.016C24.3636 15.0098 24.3711 15.0017 24.3766 14.9924C24.3821 14.9831 24.3856 14.9727 24.3867 14.962C24.8867 9.86797 23.5487 5.44197 20.8377 1.51997C20.8311 1.50723 20.8201 1.49729 20.8067 1.49197ZM8.50974 12.278C7.32774 12.278 6.35274 11.209 6.35274 9.89797C6.35274 8.58597 7.30874 7.51797 8.50974 7.51797C9.71974 7.51797 10.6857 8.59497 10.6667 9.89797C10.6667 11.21 9.71074 12.278 8.50974 12.278ZM16.4847 12.278C15.3017 12.278 14.3277 11.209 14.3277 9.89797C14.3277 8.58597 15.2827 7.51797 16.4847 7.51797C17.6947 7.51797 18.6607 8.59497 18.6417 9.89797C18.6417 11.21 17.6957 12.278 16.4847 12.278Z" fill="black"/>
</svg>
