<svg width="21" height="20" viewBox="0 0 21 20" fill="none" xmlns="http://www.w3.org/2000/svg">
<path d="M2.74126 8C2.57341 8.6534 2.48874 9.32538 2.48926 10C2.48926 10.69 2.57726 11.36 2.74126 12H5.58926C5.45444 10.6701 5.45444 9.32993 5.58926 8H2.74126ZM3.55926 6H5.90526C6.17126 4.783 6.55526 3.693 7.02626 2.786C5.57444 3.48542 4.36647 4.60523 3.55926 6ZM18.2373 8H15.3893C15.5241 9.32993 15.5241 10.6701 15.3893 12H18.2373C18.5739 10.6879 18.5739 9.31208 18.2373 8ZM17.4193 6C16.612 4.60523 15.4041 3.48542 13.9523 2.786C14.4243 3.693 14.8073 4.783 15.0733 6H17.4193ZM7.60126 8C7.52633 8.66403 7.48894 9.33176 7.48926 10C7.48926 10.685 7.52726 11.355 7.60126 12H13.3773C13.5279 10.6709 13.5279 9.32908 13.3773 8H7.60126ZM7.95926 6H13.0193C12.8373 5.2483 12.5748 4.51841 12.2363 3.823C11.6083 2.568 10.9363 2 10.4893 2C10.0413 2 9.37026 2.568 8.74226 3.823C8.42726 4.455 8.16226 5.19 7.95926 6ZM3.55926 14C4.36647 15.3948 5.57444 16.5146 7.02626 17.214C6.55426 16.307 6.17126 15.217 5.90526 14H3.55926ZM17.4193 14H15.0733C14.8073 15.217 14.4233 16.307 13.9523 17.214C15.4041 16.5146 16.612 15.3948 17.4193 14ZM7.95926 14C8.16226 14.81 8.42726 15.545 8.74226 16.177C9.37026 17.432 10.0423 18 10.4893 18C10.9373 18 11.6083 17.432 12.2363 16.177C12.5513 15.545 12.8163 14.81 13.0193 14H7.95926ZM10.4893 20C4.96626 20 0.489258 15.523 0.489258 10C0.489258 4.477 4.96626 0 10.4893 0C16.0123 0 20.4893 4.477 20.4893 10C20.4893 15.523 16.0123 20 10.4893 20Z" fill="black"/>
</svg>
