<svg width="24" height="20" viewBox="0 0 24 20" fill="none" xmlns="http://www.w3.org/2000/svg">
<path d="M23.1318 2.93708C22.2968 3.30708 21.3998 3.55708 20.4568 3.67008C21.4298 3.08787 22.1577 2.17154 22.5048 1.09208C21.5906 1.63507 20.5901 2.01727 19.5468 2.22208C18.8452 1.47294 17.9158 0.976403 16.9031 0.809551C15.8904 0.642699 14.8509 0.814868 13.946 1.29933C13.0412 1.78379 12.3216 2.55344 11.8989 3.48878C11.4763 4.42412 11.3743 5.47283 11.6088 6.47208C9.75647 6.37907 7.94441 5.89763 6.29021 5.05898C4.636 4.22034 3.17662 3.04324 2.00678 1.60408C1.60678 2.29408 1.37678 3.09408 1.37678 3.94608C1.37633 4.71307 1.56521 5.46832 1.92666 6.14481C2.28811 6.8213 2.81094 7.39812 3.44878 7.82408C2.70906 7.80054 1.98565 7.60066 1.33878 7.24108V7.30108C1.33871 8.37682 1.71081 9.41945 2.39196 10.2521C3.07311 11.0847 4.02135 11.656 5.07578 11.8691C4.38956 12.0548 3.67012 12.0821 2.97178 11.9491C3.26928 12.8747 3.84878 13.6841 4.62915 14.264C5.40952 14.8439 6.3517 15.1653 7.32378 15.1831C5.67361 16.4785 3.63567 17.1812 1.53778 17.1781C1.16616 17.1782 0.794858 17.1565 0.425781 17.1131C2.55526 18.4823 5.03412 19.2089 7.56578 19.2061C16.1358 19.2061 20.8208 12.1081 20.8208 5.95208C20.8208 5.75208 20.8158 5.55008 20.8068 5.35008C21.7181 4.69105 22.5047 3.87497 23.1298 2.94008L23.1318 2.93708Z" fill="black"/>
</svg>
