<svg width="23" height="22" viewBox="0 0 23 22" fill="none" xmlns="http://www.w3.org/2000/svg">
<path d="M0.772504 16.2988L0.772463 16.2989C0.192709 17.312 0.196196 18.5227 0.782819 19.5335C1.3694 20.5452 2.41847 21.15 3.58714 21.15H19.4048C20.5724 21.15 21.6215 20.5452 22.2081 19.5334C22.7946 18.5227 22.7981 17.312 22.2184 16.2989C22.2184 16.2989 22.2184 16.2989 22.2184 16.2989L14.3157 2.48175C13.7324 1.46054 12.6786 0.85 11.5031 0.85H11.502C10.3255 0.85 9.27385 1.45941 8.69061 2.47949L0.772504 16.2988ZM20.5212 18.5557L20.521 18.5559C20.2871 18.9596 19.8702 19.2004 19.4048 19.2004H3.58714C3.12059 19.2004 2.70369 18.9596 2.46981 18.5559C2.23587 18.1522 2.234 17.6714 2.4648 17.267L10.3805 3.44925C10.3805 3.44918 10.3805 3.44911 10.3806 3.44904C10.6157 3.04121 11.0325 2.79962 11.502 2.79962C11.9728 2.79962 12.3895 3.04138 12.6234 3.44901L20.525 17.2671L20.5252 17.2675C20.7578 17.6717 20.756 18.1521 20.5212 18.5557ZM12.7443 15.8455C12.7443 15.1545 12.1855 14.5957 11.4945 14.5957H11.4835C10.7928 14.5957 10.2393 15.1554 10.2393 15.8455C10.2393 16.5375 10.8045 17.0952 11.4945 17.0952C12.1855 17.0952 12.7443 16.5365 12.7443 15.8455ZM12.4671 9.04355C12.4671 8.50541 12.0305 8.06874 11.4923 8.06874C10.9542 8.06874 10.5175 8.50541 10.5175 9.04355V12.4528C10.5175 12.9909 10.9542 13.4276 11.4923 13.4276C12.0305 13.4276 12.4671 12.9909 12.4671 12.4528V9.04355Z" fill="black" stroke="black" stroke-width="0.3"/>
</svg>
